<svg width="80" height="80" viewBox="0 0 80 80" fill="none" xmlns="http://www.w3.org/2000/svg">
<path d="M57.1953 31.1953C41.7656 27.8125 54.4141 6.41405 33.2734 8.18748C12.1328 9.96092 -7.91405 58.6406 29.6172 70.039C67.1484 81.4375 86.4922 37.6172 57.1953 31.1953Z" fill="white"/>
<path d="M42.1484 65.5312C42.0391 65.5312 41.9219 65.5078 41.8203 65.4531L25.7891 57.0547C25.7074 57.0122 25.6349 56.9541 25.5757 56.8835C25.5165 56.813 25.4719 56.7315 25.4443 56.6437C25.4167 56.5558 25.4067 56.4634 25.415 56.3717C25.4232 56.28 25.4494 56.1909 25.4922 56.1093L41.3281 25.8672C41.3875 25.7531 41.4774 25.6576 41.5877 25.5914C41.698 25.5253 41.8245 25.4909 41.9531 25.4922C42.0625 25.4922 42.1797 25.5156 42.2813 25.5703L58.3125 33.9687C58.6563 34.1484 58.7891 34.5703 58.6094 34.914L42.7656 65.1562C42.7068 65.2691 42.6182 65.3638 42.5094 65.4299C42.4006 65.496 42.2758 65.5311 42.1484 65.5312Z" fill="white"/>
<path d="M41.9531 26.1953L57.9844 34.5937L42.1485 64.8281L26.1172 56.4375L41.9531 26.1953ZM41.9531 24.7969C41.8125 24.7969 41.6719 24.8203 41.5391 24.8594C41.1875 24.9688 40.8906 25.2188 40.7188 25.5469L24.875 55.7891C24.7895 55.9521 24.737 56.1304 24.7206 56.3138C24.7041 56.4972 24.724 56.682 24.7792 56.8577C24.8344 57.0334 24.9237 57.1964 25.042 57.3375C25.1604 57.4785 25.3054 57.5948 25.4688 57.6797L41.5 66.0781C41.7031 66.1875 41.9219 66.2344 42.1485 66.2344C42.2891 66.2344 42.4297 66.2109 42.5625 66.1719C42.9141 66.0625 43.211 65.8125 43.3828 65.4844L59.2266 35.2344C59.3973 34.9059 59.4306 34.5231 59.3193 34.1701C59.208 33.8171 58.9611 33.5227 58.6328 33.3516L42.6016 24.9531C42.4063 24.8516 42.1797 24.7969 41.9531 24.7969Z" fill="#151B28"/>
<path d="M42.0625 65.2734C41.9844 65.2734 41.9063 65.2578 41.8359 65.2344L21.9922 58.4375C21.905 58.4078 21.8245 58.3611 21.7553 58.3003C21.6861 58.2394 21.6296 58.1655 21.589 58.0828C21.5483 58.0001 21.5244 57.9102 21.5185 57.8183C21.5126 57.7263 21.5249 57.6341 21.5547 57.5469L34.375 20.1094C34.4766 19.8203 34.7422 19.6328 35.0391 19.6328C35.1172 19.6328 35.1875 19.6484 35.2656 19.6719L55.1094 26.4687C55.2813 26.5312 55.4297 26.6562 55.5078 26.8203C55.5859 26.9844 55.6016 27.1797 55.5391 27.3516L42.7266 64.7969C42.6641 64.9688 42.5391 65.1172 42.375 65.1953C42.2735 65.25 42.1719 65.2734 42.0625 65.2734Z" fill="white"/>
<path d="M35.0469 20.3437L54.8906 27.1406L42.0625 64.5703L22.2187 57.7734L35.0469 20.3437ZM35.0469 18.9453C34.8359 18.9453 34.625 18.9922 34.4297 19.0859C34.0961 19.2503 33.8407 19.5394 33.7187 19.8906L20.8984 57.3203C20.6484 58.0547 21.039 58.8438 21.7656 59.0938L41.6094 65.8906C41.7578 65.9375 41.9062 65.9688 42.0625 65.9688C42.2734 65.9688 42.4844 65.9219 42.6797 65.8281C43.0156 65.6641 43.2656 65.375 43.3906 65.0234L56.2109 27.5859C56.4609 26.8516 56.0703 26.0625 55.3437 25.8125L35.5 19.0156C35.3515 18.9687 35.1953 18.9453 35.0469 18.9453Z" fill="#151B28"/>
<path d="M35.0469 25.2344C34.5078 25.2344 33.9766 25.1484 33.4609 24.9688C33.2891 24.9063 33.1406 24.7813 33.0625 24.6172C32.9844 24.4531 32.9687 24.2578 33.0312 24.0859L34.3906 20.1172C34.4922 19.8281 34.7578 19.6406 35.0547 19.6406C35.1328 19.6406 35.2031 19.6562 35.2812 19.6797L39.25 21.0391C39.4219 21.1016 39.5703 21.2266 39.6484 21.3906C39.7266 21.5547 39.7422 21.75 39.6797 21.9219C39.3478 22.8872 38.7232 23.725 37.8928 24.3187C37.0624 24.9124 36.0676 25.2325 35.0469 25.2344Z" fill="white"/>
<path d="M35.0469 20.3437L39.0156 21.7031C38.731 22.5298 38.1958 23.2471 37.4845 23.7554C36.7732 24.2637 35.9211 24.5376 35.0469 24.5391C34.5938 24.5391 34.1406 24.4688 33.6875 24.3125L35.0469 20.3437ZM35.0469 18.9453C34.4688 18.9453 33.9219 19.3125 33.7266 19.8906L32.3672 23.8594C32.25 24.2109 32.2734 24.5938 32.4375 24.9297C32.6016 25.2656 32.8906 25.5156 33.2422 25.6406C33.8281 25.8438 34.4375 25.9453 35.0547 25.9453C36.2204 25.9447 37.3567 25.58 38.305 24.902C39.2533 24.2241 39.966 23.2669 40.3438 22.1641C40.4609 21.8125 40.4375 21.4297 40.2734 21.0938C40.1091 20.7602 39.82 20.5048 39.4688 20.3828L35.5 19.0234C35.3437 18.9688 35.1953 18.9453 35.0469 18.9453Z" fill="#151B28"/>
<path d="M53.5234 31.8047C53.4453 31.8047 53.3672 31.7891 53.2969 31.7656C52.069 31.3439 51.0585 30.4523 50.4873 29.2864C49.9161 28.1205 49.8307 26.7756 50.25 25.5469C50.3516 25.2578 50.6172 25.0703 50.9141 25.0703C50.9922 25.0703 51.0625 25.0859 51.1406 25.1094L55.1094 26.4687C55.4766 26.5937 55.6719 26.9922 55.5469 27.3594L54.1875 31.3281C54.125 31.5 54 31.6484 53.8359 31.7266C53.7344 31.7813 53.6328 31.8047 53.5234 31.8047Z" fill="white"/>
<path d="M50.9141 25.7812L54.8828 27.1406L53.5234 31.1094C52.4722 30.7471 51.6073 29.9829 51.1182 28.9843C50.6292 27.9856 50.5557 26.8339 50.9141 25.7812ZM50.9141 24.3828C50.7031 24.3828 50.4922 24.4297 50.2969 24.5234C49.9633 24.6878 49.7079 24.9769 49.5859 25.3281C48.5859 28.2422 50.1484 31.4297 53.0625 32.4297C53.2109 32.4844 53.3672 32.5078 53.5156 32.5078C54.0937 32.5078 54.6406 32.1406 54.8359 31.5625L56.1953 27.5938C56.3125 27.2422 56.2891 26.8594 56.125 26.5234C55.9607 26.1899 55.6716 25.9345 55.3203 25.8125L51.3672 24.4531C51.2266 24.4062 51.0703 24.3828 50.9141 24.3828Z" fill="#151B28"/>
<path d="M26.1953 59.8359C26.1172 59.8359 26.0391 59.8203 25.9687 59.7968L22 58.4375C21.8281 58.375 21.6797 58.25 21.6016 58.0859C21.5234 57.9218 21.5078 57.7265 21.5703 57.5546L22.9297 53.5859C22.9922 53.414 23.1172 53.2656 23.2812 53.1875C23.4472 53.107 23.6383 53.0958 23.8125 53.1562C25.0404 53.5779 26.0509 54.4695 26.6221 55.6354C27.1933 56.8013 27.2786 58.1462 26.8594 59.375C26.7969 59.5468 26.6719 59.6953 26.5078 59.7734C26.4062 59.8125 26.2969 59.8359 26.1953 59.8359Z" fill="white"/>
<path d="M23.5859 53.8125C25.7812 54.5625 26.9453 56.9453 26.1953 59.1406L22.2265 57.7812L23.5859 53.8125ZM23.5859 52.4141C23.375 52.4141 23.164 52.4609 22.9687 52.5547C22.6352 52.719 22.3798 53.0081 22.2578 53.3594L20.8984 57.3281C20.6484 58.0625 21.039 58.8516 21.7656 59.1016L25.7344 60.4609C25.8828 60.5078 26.0312 60.5391 26.1875 60.5391C26.3984 60.5391 26.6094 60.4922 26.8047 60.3984C27.1406 60.2344 27.3906 59.9453 27.5156 59.5937C28 58.1797 27.9062 56.6641 27.25 55.3203C26.5937 53.9766 25.4531 52.9766 24.039 52.4922C23.8906 52.4375 23.7344 52.4141 23.5859 52.4141Z" fill="#151B28"/>
<path d="M42.0625 65.2734C41.9844 65.2734 41.9141 65.2578 41.8359 65.2344L37.8672 63.875C37.6953 63.8125 37.5469 63.6875 37.4687 63.5234C37.3906 63.3594 37.375 63.1641 37.4375 62.9922C37.7682 62.0276 38.3914 61.1902 39.2204 60.5965C40.0493 60.0027 41.0428 59.6823 42.0625 59.6797C42.6016 59.6797 43.1406 59.7656 43.6562 59.9453C43.8281 60.0078 43.9766 60.1328 44.0547 60.2969C44.1328 60.4609 44.1484 60.6562 44.0859 60.8281L42.7266 64.7969C42.6792 64.9355 42.5898 65.056 42.4708 65.1414C42.3517 65.2268 42.209 65.273 42.0625 65.2734Z" fill="white"/>
<path d="M42.0625 60.375C42.5156 60.375 42.9765 60.4453 43.4297 60.6016L42.0703 64.5703L38.1015 63.2109C38.3831 62.3839 38.9164 61.6657 39.6268 61.1571C40.3371 60.6485 41.1888 60.375 42.0625 60.375ZM42.0625 58.9766C40.8968 58.9772 39.7604 59.3419 38.8122 60.0198C37.8639 60.6978 37.1511 61.655 36.7734 62.7578C36.5234 63.4922 36.914 64.2812 37.6406 64.5312L41.6094 65.8906C41.7578 65.9375 41.9062 65.9688 42.0625 65.9688C42.2734 65.9688 42.4844 65.9219 42.6797 65.8281C43.0156 65.6641 43.2656 65.375 43.3906 65.0234L44.75 61.0547C45 60.3203 44.6094 59.5312 43.8828 59.2812C43.289 59.0781 42.6797 58.9766 42.0625 58.9766Z" fill="#151B28"/>
<path d="M38.5625 54.0938C37.2812 54.0938 36.0156 53.8828 34.789 53.4609C34.7109 53.4297 34.6172 53.4063 34.5234 53.3594C32.2497 52.5232 30.2948 50.9962 28.9329 48.9926C27.571 46.989 26.8705 44.6094 26.9297 42.1875C26.9297 42.125 26.9453 42.0547 26.9609 42L29.1172 35.7031C29.1406 35.6406 29.1719 35.5859 29.2109 35.5312C31.3906 32.5781 34.8906 30.8203 38.5625 30.8203C39.8437 30.8203 41.1094 31.0313 42.3281 31.4531C46.3515 32.8281 49.2969 36.2891 50.0156 40.4766C50.1484 41.2187 50.2109 41.9766 50.1953 42.7266C50.1953 42.7891 50.1797 42.8516 50.164 42.9141L48.0078 49.2109C47.9844 49.2734 47.9531 49.3281 47.914 49.3828C45.7265 52.3281 42.2344 54.0938 38.5625 54.0938Z" fill="white"/>
<path d="M38.5547 31.4531C39.7344 31.4531 40.9375 31.6484 42.1172 32.0469C46.0469 33.3906 48.7266 36.7422 49.3828 40.5781C49.5078 41.2734 49.5703 41.9922 49.5547 42.7031L47.3984 49C46.3749 50.3805 45.043 51.5027 43.5089 52.2772C41.9749 53.0517 40.281 53.4571 38.5625 53.4609C37.3828 53.4609 36.1797 53.2656 34.9922 52.8672C34.9141 52.8438 34.8359 52.8125 34.7578 52.7734C34.75 52.7734 34.7422 52.7656 34.7422 52.7656C30.2344 51.1016 27.4531 46.7813 27.5625 42.2031L29.7188 35.9063C31.7813 33.1094 35.0859 31.4531 38.5547 31.4531ZM38.5547 30.1797C34.6797 30.1797 30.9922 32.0391 28.6875 35.1484C28.6094 35.25 28.5469 35.3672 28.5078 35.4922L26.3516 41.7891C26.3125 41.9141 26.2891 42.0391 26.2813 42.1719C26.2215 44.7222 26.9595 47.2276 28.3923 49.3382C29.8251 51.4489 31.8811 53.0595 34.2734 53.9453L34.5703 54.0625C35.8594 54.5078 37.1953 54.7266 38.5469 54.7266C42.4219 54.7266 46.1016 52.8672 48.4063 49.7578C48.4844 49.6563 48.5469 49.5391 48.5859 49.4141L50.7422 43.1172C50.7813 42.9922 50.8047 42.8672 50.8125 42.7344C50.8359 41.9453 50.7656 41.1406 50.625 40.3516C50.2519 38.1845 49.3019 36.158 47.8749 34.4849C46.448 32.8119 44.5967 31.5541 42.5156 30.8438C41.2422 30.4063 39.9063 30.1797 38.5547 30.1797Z" fill="#151B28"/>
<path d="M35.6641 38.8203C34.8047 39.2422 34.2578 39.6563 33.9219 40.6406C33.5469 41.7422 34.0234 42.7109 35.0547 43.0625C37.7188 43.9766 38.625 38.7812 42.4297 40.0859C44.0937 40.6562 44.8594 42.0937 44.5156 43.8125L46.2578 44.4063L45.9297 45.3594L44.2031 44.7656C43.7031 45.8594 42.7578 46.7734 41.8359 47.2656L41.1641 46.3516C42.0547 45.8516 42.8906 45.1406 43.2656 44.0391C43.7266 42.6875 43.2266 41.75 42.0859 41.3594C39.1094 40.3359 38.125 45.5078 34.6719 44.3203C33.1328 43.7969 32.375 42.375 32.6641 40.8125L30.9219 40.2187L31.25 39.2656L32.9766 39.8594C33.4688 38.7813 34.25 38.2422 35.1172 37.8594L35.6641 38.8203Z" fill="black"/>
</svg>
